Simulation
nRows=36
nColumns=15
endheader
time  TH_x TH_y TH_z SC_y  SC_z  SC_x  AC_y  AC_z  AC_x  GH_y  GH_z  GH_yy  EL_x  PS_y
0.0  0.000000  0.000000  0.000000  -29.25609270620768  -1.2903050287437008  13.006921786443414  56.09038720809654  -7.754089517356828  -14.103972595794149  115.59751646228318  0.5411362838904712  -91.4232066502605  25.69193857529136  0.000000
0.015  0.000000  0.000000  0.000000  -29.338032913458107  -1.167989309043147  13.029477776858588  56.0042365137436  -7.444463223333369  -14.141444155774785  80.2181562116722  0.5021051743302068  -56.15044491902355  25.621838906634522  0.000000
0.03  0.000000  0.000000  0.000000  -29.293248666882796  -1.0763649873391774  13.069287627578772  55.96690391804503  -7.225102506702914  -14.205642095120506  49.63940395389639  0.6837420730622976  -25.64229124037646  25.57875335672332  0.000000
0.045  0.000000  0.000000  0.000000  -29.304152408451777  -1.0103951503186488  13.132014479406198  55.94912402919378  -7.094744150125676  -14.268270504540817  34.18706631376589  1.0355238094463026  -10.290726111320348  25.54185594023425  0.000000
0.06  0.000000  0.000000  0.000000  -29.32854858389611  -0.9648287252662254  13.215788439980402  55.92123837343344  -7.025834703303586  -14.333922134358586  27.483859954289226  1.4563479213847939  -3.754827789674374  25.50226879706119  0.000000
0.075  0.000000  0.000000  0.000000  -29.366036713251233  -0.9320985710365844  13.315301630030994  55.90866769673309  -7.007312550435412  -14.400872073974817  24.460738401884207  1.9240359681300427  -0.9477801702299705  25.453273700574936  0.000000
0.09  0.000000  0.000000  0.000000  -29.407478046828118  -0.9041979041915045  13.429795782878948  55.896929198806475  -7.0232251028243455  -14.466348541808463  23.038483933720627  2.4164584291371556  0.20683870606904198  25.403340419014242  0.000000
0.105  0.000000  0.000000  0.000000  -29.45178514285792  -0.8769365973772343  13.55667229231187  55.891446543005166  -7.066066794014424  -14.528123667517605  22.397149090859315  2.933061786281838  0.5358109937550664  25.347177500053427  0.000000
0.12  0.000000  0.000000  0.000000  -29.49698281473692  -0.8492069166810396  13.693185035761745  55.891108835389225  -7.1254047436211065  -14.586765383655528  22.137375362628685  3.4715239337919592  0.4416507994365279  25.288709220908082  0.000000
0.135  0.000000  0.000000  0.000000  -29.543033400909483  -0.819245357926516  13.837851752700994  55.89563782035588  -7.196413669055982  -14.640192998861156  22.051621344399756  4.032357928490858  0.1352658225378087  25.225303183669133  0.000000
0.15  0.000000  0.000000  0.000000  -29.589334447776302  -0.7867779329698485  13.98817800902359  55.90653942793144  -7.272415140470723  -14.690260913289233  22.06820867965713  4.615891927887269  -0.3096448622230058  25.15859315592858  0.000000
0.16499999999999998  0.000000  0.000000  0.000000  -29.637226001568152  -0.7511981380765621  14.14422129712079  55.92235292772973  -7.350076867463929  -14.735173208712352  22.104915864326614  5.222010129804489  -0.8061281117048517  25.088514387388805  0.000000
0.18  0.000000  0.000000  0.000000  -29.68547291352526  -0.7126988894775546  14.304099338689864  55.9444541889693  -7.42528530464992  -14.776765539515422  22.16218342831879  5.8512212986703664  -1.3526038395311524  25.015251166722685  0.000000
0.195  0.000000  0.000000  0.000000  -29.7357790025156  -0.6715550849709133  14.46791312085672  55.97229073546952  -7.495926593465632  -14.813728463802008  22.2081773625348  6.5035130934014775  -1.9123926493343675  24.93882478097663  0.000000
0.21  0.000000  0.000000  0.000000  -29.78755096455052  -0.6280302518151762  14.63396204797215  56.00672222049615  -7.558925806222668  -14.847147643548281  22.25102411367643  7.178906686294458  -2.491056691071006  24.85966080450102  0.000000
0.22499999999999998  0.000000  0.000000  0.000000  -29.842508675179143  -0.5817951131814013  14.802238245973273  56.04753268984196  -7.6129220788122325  -14.875646204424513  22.276138673484397  7.877133261728483  -3.0695777492507488  24.7781392784113  0.000000
0.24  0.000000  0.000000  0.000000  -29.899650959302377  -0.5322316538135914  14.971164536836064  56.09575760318255  -7.655865529019313  -14.899460421664225  22.292090808441106  8.59765541126635  -3.6537127857554115  24.694489774653107  0.000000
0.255  0.000000  0.000000  0.000000  -29.960899591927397  -0.47930899177633807  15.140929436252208  56.15131476874441  -7.686848326449928  -14.91717067141924  22.289986838290787  9.33947866303524  -4.230636519413693  24.608977028437405  0.000000
0.27  0.000000  0.000000  0.000000  -30.02563183336828  -0.42305278892359954  15.310145785915873  56.21485721054282  -7.704411879610477  -14.928664918236105  22.277048640976677  10.101242694817605  -4.805071528882894  24.521438789441152  0.000000
0.285  0.000000  0.000000  0.000000  -30.0951885599188  -0.3629802379629249  15.478892756613071  56.286509475143006  -7.708118240887765  -14.93222969251  22.251142173226132  10.880990830624272  -5.371411486106378  24.431825395691927  0.000000
0.3  0.000000  0.000000  0.000000  -30.168588770324117  -0.298479099541031  15.645918424120818  56.36679195101756  -7.697178301068032  -14.927273396730596  22.219093750269252  11.676646042131416  -5.9340380845905685  24.34007390160092  0.000000
0.315  0.000000  0.000000  0.000000  -30.247416469098706  -0.2289964053554175  15.81141936892411  56.45582169248344  -7.6712920011127  -14.912128841830379  22.179346317930754  12.485771992554572  -6.488230220491874  24.246349839424056  0.000000
0.32999999999999996  0.000000  0.000000  0.000000  -30.330523302372377  -0.15364147106131976  15.974249671417889  56.55398857688822  -7.629954162535438  -14.886171827637895  22.136448722735942  13.305766099507514  -7.036268406665953  24.150662630829533  0.000000
0.345  0.000000  0.000000  0.000000  -30.418469442263934  -0.07161305067607132  16.13468834623588  56.66140083870768  -7.57319634118275  -14.848443596674615  22.08980915211051  14.133621105352438  -7.57495568492944  24.052921813782984  0.000000
0.36  0.000000  0.000000  0.000000  -30.50925716831188  0.01716931735099136  16.292048373492175  56.7775984094225  -7.500826072509833  -14.79944053713979  22.04179784352843  14.965966608826173  -8.104653074421691  23.952899651249684  0.000000
0.375  0.000000  0.000000  0.000000  -30.60210003056438  0.11257643935632794  16.446721690811895  56.90121140702809  -7.412724962227325  -14.739690529094723  21.99147655980377  15.798867574963525  -8.622018611922842  23.85025213892023  0.000000
0.39  0.000000  0.000000  0.000000  -30.693318354106417  0.21429625405709113  16.597608147517846  57.03035680061688  -7.308477099370236  -14.671118596177656  21.941060111821617  16.628410735751963  -9.127685036085902  23.74435804965145  0.000000
0.40499999999999997  0.000000  0.000000  0.000000  -30.784294308636408  0.3211159301693483  16.744173740402136  57.161944738800265  -7.187071652568151  -14.594346928866791  21.89016406254755  17.45164804319526  -9.619336105688474  23.63455907547867  0.000000
0.42  0.000000  0.000000  0.000000  -30.876797486631734  0.43104194799766704  16.88378439664425  57.2925284866741  -7.046309555878458  -14.50985111308446  21.839198552771077  18.26747149872262  -10.095487852065872  23.521060740173443  0.000000
0.435  0.000000  0.000000  0.000000  -30.971786082881103  0.5433211297412845  17.02249594273987  57.420951755529515  -6.8900803765123575  -14.422722015875186  21.78818137397054  19.07512244770532  -10.555061331135713  23.404860351872596  0.000000
0.44999999999999996  0.000000  0.000000  0.000000  -31.063982446991073  0.6605394628947391  17.17051106997195  57.5483674017917  -6.727434606249143  -14.338910359635873  21.74184067257609  19.87246451124312  -11.003603166638461  23.284646835850964  0.000000
0.46499999999999997  0.000000  0.000000  0.000000  -31.151592613669408  0.7854484650834657  17.32797348381768  57.67569390568924  -6.557589482561203  -14.255789953215222  21.70307892172361  20.656597445885616  -11.445520474963432  23.159425943710986  0.000000
0.48  0.000000  0.000000  0.000000  -31.234294978220095  0.9175075868198599  17.48613584617187  57.80346221381038  -6.372848437309131  -14.16884250999681  21.671527543018307  21.42682939402981  -11.881674671519002  23.03021250840578  0.000000
0.495  0.000000  0.000000  0.000000  -31.31604370281553  1.055067289584823  17.64345012682439  57.932711112326196  -6.171115254996278  -14.077066738424898  21.64435480413387  22.18399381995313  -12.309228165332817  22.897102339146155  0.000000
0.51  0.000000  0.000000  0.000000  -31.398810943616095  1.197090847705138  17.79937815469215  58.0639785875005  -5.952809293193969  -13.980261782606458  21.620320010007717  22.928984100793958  -12.726879947496027  22.759627727011424  0.000000
0.525  0.000000  0.000000  0.000000  -31.48584034119022  1.3430735275710382  17.955033204504634  58.19742231032434  -5.718569013359441  -13.878315616540545  21.598536046890324  23.661992750059202  -13.133914583164046  22.61762183958932  0.000000
